<svg xmlns="http://www.w3.org/2000/svg" viewBox="0 0 1200 627">
  <rect width="1200" height="627" fill="#c8c8c8"/>
  <g>
    <g>
      <path d="M49.3857,48.43H62.2026V94.1543h54.5806V48.43h12.8174V152.1191H116.7832V106.3232H62.2026v45.7959H49.3857Z"/>
      <path d="M212.0376,104.019v48.1h-11.377V140.022c-6.1923,9.5049-15.8413,14.2573-28.8022,14.2573-17.4258,0-26.4268-10.6567-26.4268-23.186,0-12.2412,7.273-19.37,19.0821-22.8257,9.7207-2.5923,23.4018-4.2486,34.9228-5.8325-.36-12.3853-5.6885-18.29-19.1538-18.29-9.4326,0-16.9931,4.104-19.8017,13.6089L148.312,94.082c3.6724-13.6089,14.5454-21.89,32.1148-21.89,14.0415,0,24.6264,5.04,29.0908,15.1933C211.6777,92.21,212.0376,97.8984,212.0376,104.019Zm-14.041,21.6021c1.08-3.7446,1.2241-8.7129,1.2959-12.2412-10.9448,1.44-21.458,2.664-29.0186,4.8242-6.4087,2.0161-12.0971,5.5444-12.0971,12.8174,0,6.4082,4.5366,12.5288,15.6254,12.5288C187.6274,143.55,196.124,135.27,197.9966,125.6211Z"/>
      <path d="M297.646,74.3525v77.7666H286.1973V142.11c-5.7608,7.7045-14.69,12.0249-25.9224,12.0249-25.0581,0-30.9629-22.0337-30.9629-36.795V74.3525h12.9614v38.9551c0,14.6172,4.68,28.6587,21.0977,28.6587,12.8892,0,21.3857-8.6406,21.3857-26.6426V74.3525Z"/>
      <path d="M313.4785,113.1636c0-24.41,14.6177-40.9712,37.4434-40.9712,23.33,0,37.5151,16.9214,37.5151,40.9712,0,24.41-14.4009,41.1157-37.5151,41.1157C327.6641,154.2793,313.4785,137.2856,313.4785,113.1636Zm61.35,0c0-17.4976-7.9927-28.8023-23.9062-28.8023-16.2735,0-23.834,11.8091-23.834,28.8023,0,17.57,8.1367,28.9468,23.834,28.9468C366.98,142.11,374.8281,130.3013,374.8281,113.1636Z"/>
      <path d="M444.3779,74.3525V86.3774c-5.4-1.3681-12.3852-1.0083-17.7856,2.9522-7.5606,5.4-9.4326,14.5454-9.4326,23.7622v39.0273H404.2705V74.3525h11.4487v12.313a24.1514,24.1514,0,0,1,6.6246-7.56C428.32,74.28,437.4653,72.84,444.3779,74.3525Z"/>
      <path d="M517.82,104.019v48.1H506.4429V140.022c-6.1924,9.5049-15.8413,14.2573-28.8023,14.2573-17.4258,0-26.4267-10.6567-26.4267-23.186,0-12.2412,7.2729-19.37,19.082-22.8257,9.7207-2.5923,23.4019-4.2486,34.9229-5.8325-.36-12.3853-5.6885-18.29-19.1539-18.29-9.4326,0-16.9931,4.104-19.8017,13.6089l-12.169-3.6724c3.6724-13.6089,14.5454-21.89,32.1148-21.89,14.0415,0,24.6264,5.04,29.0908,15.1933C517.46,92.21,517.82,97.8984,517.82,104.019Zm-14.041,21.6021c1.08-3.7446,1.2241-8.7129,1.2959-12.2412-10.9448,1.44-21.458,2.664-29.0185,4.8242-6.4087,2.0161-12.0972,5.5444-12.0972,12.8174,0,6.4082,4.5366,12.5288,15.6255,12.5288C493.41,143.55,501.9062,135.27,503.7788,125.6211Z"/>
      <path d="M44.3452,267.3887,57.5942,265.3c3.3125,13.1055,14.7613,20.81,29.2344,20.81,13.8975,0,24.9146-6.9126,24.9146-18.2178,0-9.0728-7.0567-12.961-14.4737-15.1934l-26.4262-7.8486c-11.521-3.3843-22.4659-10.0806-22.4659-25.418,0-18.3618,15.6255-29.1626,36.2911-29.0908,20.8818.144,35.8593,11.4492,39.6757,30.3149l-13.6093,2.376c-2.16-12.6011-13.0332-20.3774-26.21-20.5215-12.7451-.144-22.61,6.7686-22.61,16.3452s9.5771,12.8892,17.2817,15.0494l19.73,5.6884c9.001,2.52,26.0664,7.6329,26.0664,27.5787,0,20.0893-17.2818,31.1064-38.8115,31.1064C64.147,298.2793,47.8013,286.47,44.3452,267.3887Z"/>
      <path d="M202.39,248.019v48.1H191.0127V284.022c-6.1924,9.5049-15.8413,14.2573-28.8023,14.2573-17.4257,0-26.4262-10.6567-26.4262-23.186,0-12.2412,7.2724-19.37,19.0815-22.8257,9.7207-2.5923,23.4019-4.2486,34.9229-5.8325-.36-12.3853-5.6885-18.29-19.1538-18.29-9.4327,0-16.9932,4.104-19.8018,13.6089l-12.1689-3.6724c3.6723-13.6089,14.5454-21.89,32.1147-21.89,14.0415,0,24.6265,5.04,29.0908,15.1933C202.03,236.21,202.39,241.8984,202.39,248.019Zm-14.041,21.6021c1.08-3.7446,1.2242-8.7129,1.2959-12.2412-10.9448,1.44-21.458,2.664-29.0185,4.8242-6.4082,2.0161-12.0972,5.5444-12.0972,12.8174,0,6.4082,4.5366,12.5288,15.6255,12.5288C177.98,287.55,186.4766,279.27,188.3486,269.6211Z"/>
      <path d="M289.438,253.1313v42.9878H276.4771V257.1636c0-14.6172-4.68-28.6582-21.0977-28.6582-12.8892,0-21.3857,8.6406-21.3857,26.6421v40.9716H221.0322V218.3525h11.521v10.0088c5.7608-7.7046,14.69-12.0249,25.9224-12.0249C283.5337,216.3364,289.438,238.37,289.438,253.1313Z"/>
      <path d="M303.8311,275.0933l13.1049-2.0879c2.0879,8.4966,10.1529,13.7529,21.3858,13.7529,10.5849,0,17.0654-4.68,17.0654-12.313,0-6.5527-2.9521-8.4248-21.9619-13.5371-20.5938-5.4727-27.1465-10.8013-27.1465-21.9619,0-13.6812,11.9531-22.7539,29.8828-22.7539,17.7134,0,30.5308,9.0727,32.187,22.7539l-13.1054,2.376c-1.2959-8.2808-8.4966-13.3931-19.0816-13.6812-10.081-.2881-16.9936,4.0322-16.9936,10.6572,0,5.6885,3.96,8.1368,22.25,12.7452C361.94,256.3,368.6362,262.06,368.6362,274.0854c0,15.0494-11.7368,24.1221-31.1064,24.1221C318.9521,298.2075,306.4951,289.71,303.8311,275.0933Z"/>
    </g>
    <g>
      <path d="M743.3438,48.4468H777.18V57.59H753.1348V68.6763H772.86v9.143H753.1348V91.1372H777.18V100.28H743.3438Z"/>
      <path d="M796.1191,80.627,782.5117,61.4053h11.5195l7.7745,11.5185,7.6318-11.5185h11.5176L807.35,80.627,821.3154,100.28H809.7969L801.8057,88.33,793.7422,100.28H782.2246Z"/>
      <path d="M839.8926,83.2183c0,3.0239-.1436,5.5434.7929,6.9834,1.7266,2.7353,5.83,2.5913,10.4375,1.9438V100.28c-8.0625,1.5117-16.2695.8637-19.4375-4.8233-1.9433-3.5278-1.583-6.9834-1.583-11.6626v-14.83h-6.624V61.4053h6.624V50.6064h9.79V61.4053h11.23v7.5591h-11.23Z"/>
      <path d="M883.3066,61.4053v9.1426a11.7493,11.7493,0,0,0-7.6308.6479c-3.4551,1.584-5.3272,4.7515-5.3272,9.2148v19.87h-9.8623V61.4053h8.6387v6.2632A11.3836,11.3836,0,0,1,873.3,63.2769,15.7331,15.7331,0,0,1,883.3066,61.4053Z"/>
      <path d="M922.7607,76.5234V100.28h-8.5673V95.5288c-3.4551,4.1035-7.27,5.8316-13.2461,5.8316-8.3506,0-12.958-5.3277-12.958-11.8067,0-5.3994,2.2314-9.4307,8.4951-11.7344,3.7431-1.3681,9.3222-2.1958,16.6289-3.2758-.3955-3.6353-2.5195-5.2915-7.127-5.2915-2.8789,0-6.5508,1.2241-7.7744,4.7514l-8.8545-2.8076c1.9434-6.4072,7.27-10.8706,16.6289-10.8706,6.84,0,12.4551,1.8721,15.19,7.0552C922.6885,70.26,922.7607,72.9956,922.7607,76.5234Zm-9.7187,5.939c-6.5518,1.1157-9.2149,1.6558-11.4463,2.4839-2.88,1.1518-4.0312,2.52-4.0312,4.4634,0,2.6635,2.0869,4.2475,5.4707,4.2475a9.8951,9.8951,0,0,0,8.999-5.1836A15.4412,15.4412,0,0,0,913.042,82.4624Z"/>
      <path d="M971.5039,84.5864c0,9.2866-5.1113,15.6939-15.6943,15.6939H932.8447V48.4468h20.7334c11.086,0,15.55,7.7031,15.55,14.542,0,4.7158-1.8359,8.1714-4.8955,10.0429C969.0918,75.0474,971.5039,79.6187,971.5039,84.5864Zm-28.7246-15.91h10.6543c3.3125,0,5.76-1.6558,5.76-5.4712,0-3.168-2.0157-5.6153-5.76-5.6153H942.7793Zm18.8613,15.55c0-3.6714-2.3027-6.4068-6.8388-6.4068H942.7793V91.0654h12.0225A6.4984,6.4984,0,0,0,961.6406,84.2261Z"/>
      <path d="M977.2676,80.8428c0-12.1665,8.1347-20.5176,19.6543-20.5176,11.7343,0,19.7246,8.4951,19.7246,20.5176,0,12.0942-8.0625,20.5176-19.7246,20.5176C985.1875,101.36,977.2676,92.8652,977.2676,80.8428Zm29.0127,0c0-6.9112-3.167-11.3745-9.3584-11.3745-6.4082,0-9.2871,4.6074-9.2871,11.3745,0,6.9829,3.1679,11.3745,9.2871,11.3745C1003.1846,92.2173,1006.28,87.5381,1006.28,80.8428Z"/>
      <path d="M1026.0117,47.3667h9.791V100.28h-9.791Z"/>
      <path d="M1082.2383,48.4468V100.28H1073.6v-2.232a16.89,16.89,0,0,1-10.5117,3.3121c-10.7266,0-17.9248-8.855-17.9248-20.5176,0-11.8784,7.2705-20.5176,18.43-20.5176a16.3022,16.3022,0,0,1,8.7822,2.376V48.4468ZM1073.6,80.8428c0-7.0552-2.4482-11.8067-8.5674-11.8067-6.5517,0-9.5029,5.3272-9.5029,11.8067,0,6.5512,2.8086,11.8066,9.1426,11.8066C1071.2236,92.6494,1073.6,87.8979,1073.6,80.8428Z"/>
      <path d="M781.5713,164.0742c0,9.2149-5.3633,15.4063-15.5859,15.4063H743.3438V127.647h20.5537c10.4746,0,15.2627,7.271,15.2627,14.2544,0,4.7153-1.9444,8.3149-5.1836,10.2583A12.4346,12.4346,0,0,1,781.5713,164.0742Zm-29.4443-15.73h11.6621c3.708,0,6.5517-2.16,6.5517-6.2993,0-3.5991-2.4482-6.2988-6.5517-6.2988H752.127Zm20.6972,15.4781c0-4.1753-2.8076-7.3789-7.667-7.3789h-13.03V171.31h12.7783C769.4414,171.31,772.8242,168.43,772.8242,163.8223Z"/>
      <path d="M787.3359,160.043c0-12.2027,7.8477-20.5176,19.33-20.5176,11.7344,0,19.4014,8.4951,19.4014,20.5176,0,12.13-7.7744,20.5175-19.4014,20.5175C794.9668,180.5605,787.3359,172.0654,787.3359,160.043Zm29.5528,0c0-7.523-3.42-12.3824-10.2227-12.3824-6.9834,0-10.15,5.0391-10.15,12.3824,0,7.5591,3.4551,12.3823,10.15,12.3823C813.541,172.4253,816.8887,167.35,816.8887,160.043Z"/>
      <path d="M835.4316,126.5669h8.6739v52.9136h-8.6739Z"/>
      <path d="M889.9658,127.647v51.8335h-7.667v-2.88a15.9609,15.9609,0,0,1-11.0859,3.96c-10.7637,0-17.7461-8.8549-17.7461-20.5175,0-11.8067,7.0547-20.5176,18.0693-20.5176a15.8992,15.8992,0,0,1,9.6827,2.9878V127.647Zm-7.667,32.396c0-7.5952-2.8437-12.7427-9.4668-12.7427-6.9824,0-10.1865,5.6875-10.1865,12.7427,0,7.1269,3.1318,12.7422,9.8984,12.7422C879.5273,172.7852,882.2988,167.5659,882.2988,160.043Z"/>
      <path d="M740.9316,243.814l7.8477-1.188c1.584,6.3716,7.0547,10.0429,13.7861,10.0429,6.2276,0,11.5908-3.0957,11.5908-8.2788,0-3.7436-2.6992-5.6513-6.5156-6.8032l-13.2812-3.9238c-5.1836-1.5117-11.4112-4.6074-11.4112-12.9942,0-9.6108,8.1348-14.9023,18.5733-14.8662,10.5107.1079,17.998,5.6514,20.1211,15.19l-8.0625,1.3681c-1.1153-5.8671-6.2266-9.3588-12.166-9.4311-5.795-.1079-10.5108,2.9516-10.5108,7.3794,0,4.3193,4.3916,5.8672,8.0635,6.875l9.5742,2.7c4.7871,1.332,13.4629,3.8877,13.4629,14.0024,0,10.4385-9.18,15.8741-19.87,15.8741C750.94,259.76,742.624,253.6768,740.9316,243.814Z"/>
      <path d="M807.2773,252.6689a10.5652,10.5652,0,0,0,10.1153-6.1914l7.3789,2.34A18.1977,18.1977,0,0,1,807.6377,259.76c-11.626,0-19.4014-8.1714-19.4014-20.1939,0-12.7422,7.667-20.8413,19.041-20.8413,11.8789,0,18.79,8.7109,17.9981,22.6411H796.2988C796.9111,248.6016,800.7266,252.6689,807.2773,252.6689Zm-10.7988-17.17h21.0938c-.792-6.875-4.0313-10.1147-10.0069-10.1147C801.1582,225.3843,797.4512,228.9121,796.4785,235.499Z"/>
      <path d="M887.1211,232.6553,887.084,258.68h-7.5225l.0362-24.2251c0-5.5791-3.168-8.9268-7.8477-8.9268-4.2832,0-7.918,2.9878-7.918,8.855l-.0371,24.2969h-7.5224l.0361-24.0811c0-5.6152-3.0957-9.0708-7.8828-9.0708-4.752,0-7.92,3.5635-7.92,8.855V258.68h-7.5586v-38.875h6.6953v4.1753a13.951,13.951,0,0,1,11.1582-5.1475c5.3633,0,9.251,2.376,11.3027,6.2993A13.4921,13.4921,0,0,1,873.91,218.833C882.2617,218.833,887.1211,224.3047,887.1211,232.6553Z"/>
      <path d="M896.99,209.7983a4.6973,4.6973,0,1,1,4.7149,4.6792A4.611,4.611,0,0,1,896.99,209.7983Zm.9356,10.0069h7.5234V258.68h-7.5234Z"/>
      <path d="M954.8008,243.562c0,9.1431-5.65,15.1182-15.5137,15.1182H916.9707V206.8467h20.3731c9.8984,0,15.01,6.875,15.01,13.93,0,4.7514-2.0879,8.5307-5.5078,10.5107A12.7978,12.7978,0,0,1,954.8008,243.562Zm-30.1992-15.55h12.6338c4.1757,0,7.415-2.6279,7.415-7.1631,0-4.0317-2.916-6.9111-7.415-6.9111H924.6016Zm22.4961,15.4058c0-4.7154-3.3106-8.315-8.4942-8.315H924.6016v16.4141h13.5332C943.2832,251.5171,947.0977,248.4575,947.0977,243.418Z"/>
      <path d="M960.53,239.2065c0-12.1665,7.5947-20.4814,19.042-20.4814,11.6621,0,19.0781,8.459,19.0781,20.4814,0,12.1665-7.4883,20.5538-19.0781,20.5538C967.91,259.76,960.53,251.2651,960.53,239.2065Zm30.1279,0c0-8.1347-3.7432-13.39-11.0859-13.39-7.5586,0-11.0508,5.4712-11.0508,13.39,0,8.2071,3.7793,13.4624,11.0508,13.4624C986.9873,252.6689,990.6582,247.1616,990.6582,239.2065Z"/>
      <path d="M1008.0137,205.7666h7.5234V258.68h-7.5234Z"/>
      <path d="M1060.7852,206.8467V258.68H1054.09v-3.5635a15.5348,15.5348,0,0,1-11.59,4.6436c-10.834,0-17.6016-8.8912-17.6016-20.5538,0-11.7343,6.8028-20.4814,17.7461-20.4814a15.5273,15.5273,0,0,1,10.5821,3.7437V206.8467Zm-6.6954,32.36c0-8.0629-3.2031-13.6782-10.2939-13.6782-7.4873,0-10.9072,6.0474-10.9072,13.6782,0,7.7032,3.42,13.75,10.6552,13.75C1050.959,252.957,1054.09,247.27,1054.09,239.2065Z"/>
      <path d="M743.3438,286.0474h5.832l19.581,41.2866,19.4737-41.2866h5.9033v51.7973h-6.083V300.1216l-17.6016,37.7593h-3.42l-17.6016-37.7593v37.7593h-6.0839Z"/>
      <path d="M821.4971,332.8779a11.7349,11.7349,0,0,0,11.1591-6.84l6.1543,2.124a18.0659,18.0659,0,0,1-17.0253,10.7988c-11.4825,0-19.0059-8.1-19.0059-20.2656,0-12.7427,7.416-20.7695,18.7178-20.7695,11.6982,0,18.5381,8.4951,17.9619,22.3174H809.6543C810.1582,328.3057,814.334,332.8779,821.4971,332.8779Zm-11.7344-17.7822H832.8c-.792-7.6309-4.499-11.4106-11.0869-11.4106C814.7305,303.6851,810.6621,307.7168,809.7627,315.0957Z"/>
      <path d="M881.3271,286.0474v51.8335h-5.7236v-4.3916a15.1836,15.1836,0,0,1-12.166,5.4716c-10.8711,0-17.4219-8.8906-17.4219-20.5537s6.5869-20.4814,17.3858-20.4814a15.2658,15.2658,0,0,1,11.4824,4.6074V286.0474Zm-5.7236,32.36c0-8.603-3.6-14.6142-11.1943-14.6142-7.919,0-11.5908,6.4072-11.5908,14.6142,0,8.2793,3.7441,14.6866,11.41,14.6866C872.0762,333.0938,875.6035,326.9385,875.6035,318.4072Z"/>
      <path d="M891.8789,288.8188a4.1934,4.1934,0,1,1,4.1758,4.1758A4.1118,4.1118,0,0,1,891.8789,288.8188Zm.9727,10.1871h6.4062v38.875h-6.4062Z"/>
      <path d="M944.2188,299.0059v38.875h-5.7237v-5.003c-2.88,3.8506-7.3428,6.0108-12.958,6.0108-12.5273,0-15.4785-11.0147-15.4785-18.3936V299.0059h6.48V318.48c0,7.3066,2.3389,14.3262,10.5459,14.3262,6.4433,0,10.6914-4.3194,10.6914-13.3184V299.0059Z"/>
      <path d="M1007.9355,311.604l-.0361,26.2769h-6.4072l.0361-24.8731c0-5.7949-3.456-9.2866-8.3506-9.2866-4.3554,0-8.4951,2.9155-8.4951,9.4668l-.0361,24.6929h-6.3711l.0361-24.6211c0-5.9034-3.3476-9.5386-8.4228-9.5386s-8.459,3.7793-8.459,9.4668v24.6929h-6.4434v-38.875h5.7227v4.1391a13.7369,13.7369,0,0,1,11.0508-5.147c5.2558,0,9.2519,2.3394,11.3388,6.4073a13.2387,13.2387,0,0,1,11.77-6.4073C1002.9688,297.998,1007.9355,303.3252,1007.9355,311.604Z"/>
      <path d="M774.3359,417.08l-11.123-21.5977H748.6348V417.08h-5.291v-51.834h20.0136a22.9958,22.9958,0,0,1,3.6358.2881c8.0986,1.26,12.6338,7.3437,12.6338,14.83A14.6653,14.6653,0,0,1,768.9,394.7627L780.4551,417.08Zm-25.7011-26.6729h14.5781a12.893,12.893,0,0,0,3.2041-.2881,9.8184,9.8184,0,0,0,7.7754-9.7548,9.6589,9.6589,0,0,0-7.7754-9.7539,17.5172,17.5172,0,0,0-3.2041-.2881H748.6348Z"/>
      <path d="M805.6934,413.085a12.9059,12.9059,0,0,0,12.2031-7.4873l4.9316,1.9072A17.9394,17.9394,0,0,1,805.91,418.16c-11.3389,0-18.61-8.0274-18.61-20.3379,0-12.7422,7.1631-20.6973,18.3936-20.6973,11.5195,0,18.2861,8.2793,17.8906,21.9932H792.9512C793.3828,408.0088,797.9551,413.085,805.6934,413.085ZM793.06,394.69h24.98c-.8271-8.3867-4.9677-12.706-12.2021-12.706C798.3506,381.9844,793.8867,386.52,793.06,394.69Z"/>
      <path d="M864.8027,378.2051V416.54a37.805,37.805,0,0,1-.4316,6.1914c-1.4043,8.6748-7.1641,12.7061-16.666,12.7061-5.9756,0-12.0235-2.5195-15.334-8.5664l4.7871-2.6641c2.123,4.3194,6.4434,6.083,10.5469,6.083,8.4219,0,11.8066-4.6787,11.7695-13.8222v-3.9951a14.9066,14.9066,0,0,1-12.13,5.6875c-10.9072,0-17.2422-8.8907-17.2422-20.5538,0-11.5908,6.3721-20.4814,17.0264-20.4814a15.1226,15.1226,0,0,1,12.958,6.4434v-5.3633Zm-4.7158,19.4013c0-9.1425-3.9951-15.55-12.0947-15.55-8.3506,0-12.2734,6.7666-12.2734,15.55,0,8.8545,4.0664,15.6221,12.166,15.6221C856.1641,413.2285,860.0869,406.6055,860.0869,397.6064Z"/>
      <path d="M908.29,378.2051V417.08h-4.7509v-5.3994c-2.88,4.2119-7.4873,6.3711-13.0664,6.3711-11.6622,0-15.586-9.7188-15.586-18.4659V378.2051h5.3272v19.833c0,8.5674,3.1318,14.9746,11.2666,14.9746,7.4863,0,11.5185-5.291,11.5185-14.0742V378.2051Z"/>
      <path d="M919.8135,364.167h5.292V417.08h-5.292Z"/>
      <path d="M967.2568,392.9268V417.08H962.541v-6.4434c-3.0234,4.9317-8.17,7.5235-14.793,7.5235-8.8193,0-13.2832-5.3272-13.2832-11.5186,0-6.3711,4.1036-9.7549,9.8985-11.3027,5.2558-1.26,12.5273-2.0879,17.7109-2.8077-.0722-7.0195-2.9883-10.4023-10.3672-10.4023-5.3281,0-9.1425,2.3037-10.6191,7.4863l-5.1465-1.5117c1.7988-6.9473,7.27-10.9785,15.8379-10.9785,7.0908,0,12.2734,2.7354,14.3262,7.7754A21.7882,21.7882,0,0,1,967.2568,392.9268Zm-5.7588,10.4394a30.795,30.795,0,0,0,.504-6.1914c-5.1114.6113-11.2305,1.2236-15.5137,2.4111-3.3125.9727-6.7324,2.8438-6.7324,7.0557,0,3.3838,2.34,6.9473,8.6035,6.9473C955.7744,413.5889,960.49,409.2334,961.498,403.3662Z"/>
      <path d="M996.4531,378.2051v4.9668a10.6413,10.6413,0,0,0-9.2861,1.7646c-3.8877,3.06-4.5361,8.0987-4.5361,12.7422V417.08H977.34v-38.875h4.752V384.36a12.1075,12.1075,0,0,1,3.0234-3.6A13.44,13.44,0,0,1,996.4531,378.2051Z"/>
      <path d="M744.0645,444.4473h4.1386V492.249H773.4V496.28H744.0645Z"/>
      <path d="M779.8828,446.8945a3.168,3.168,0,1,1,3.168,3.168A3.1283,3.1283,0,0,1,779.8828,446.8945Zm1.08,10.5108h4.1406V496.28h-4.1406Z"/>
      <path d="M828.5869,457.4053v37.5068a41.879,41.879,0,0,1-.3955,6.4795c-1.26,9.0352-6.66,13.2461-16.45,13.2461-5.76,0-11.8428-2.3037-15.2978-8.6025l3.7431-2.2315c2.376,4.8233,7.0908,6.6943,11.5908,6.6943,9.4307,0,12.6338-5.291,12.5977-15.5859v-4.499a14.653,14.653,0,0,1-12.8145,6.9473c-10.9785,0-17.0976-8.9268-17.0976-20.59,0-11.5185,6.1191-20.4453,16.7021-20.4453a15.0821,15.0821,0,0,1,13.6416,7.56v-6.4795Zm-3.78,19.3652c0-9.61-4.3554-16.4853-12.9218-16.4853-8.8545,0-12.9942,7.1269-12.9942,16.4853,0,9.4307,4.3555,16.63,12.9219,16.63C820.5234,493.4,824.8066,486.31,824.8066,476.7705Z"/>
      <path d="M872.0391,475.0068V496.28h-4.1758v-20.23c0-9.8272-3.8867-15.55-12.0225-15.55-8.459,0-12.2744,6.2265-12.2744,14.7939V496.28h-4.1758v-51.833H843.17v18.789c2.8809-4.5713,7.668-6.7314,13.211-6.7314C867.1074,456.5049,872.0391,464.8564,872.0391,475.0068Z"/>
      <path d="M890.69,482.71c0,3.3115-.1446,5.22.7919,6.9834,1.7276,3.3115,5.4717,3.7793,11.2666,2.8437V496.28c-6.1914,1.332-12.6709.4316-15.0468-4.5713-1.295-2.7-1.1875-5.3272-1.1875-8.9268V461.1846h-8.711v-3.7793h8.711V446.6064H890.69v10.7989H902.748v3.7793H890.69Z"/>
      <path d="M743.3438,523.6465H775.02v3.0244H746.3672v21.3809h24.334v3.0234h-24.334V572.457H775.02v3.0235H743.3438Z"/>
      <path d="M795.9023,555.8271l-15.4775-19.2216h3.7432l13.5351,16.99,13.461-16.99h3.7441L799.43,555.8271l15.8379,19.6534h-3.8145l-13.75-17.4219-13.8222,17.4219h-3.8164Z"/>
      <path d="M829.5977,562.5938c0,3.3837-.1446,5.1835.7919,6.9833,1.7276,3.4561,5.3995,4.0313,11.4463,3.0235v2.88c-5.831,1.2959-11.95.36-14.1816-4.5352-1.1523-2.5195-1.08-4.9678-1.08-8.3515V539.6289h-9.1426v-3.0234h9.1426V525.8066h3.0235v10.7989h12.2382v3.0234H829.5977Z"/>
      <path d="M867.0371,536.6055v2.88c-3.24-.7208-7.0547-.5762-10.15,2.3037-4.1035,3.8154-4.1035,9.79-4.1035,14.542v19.1494H849.76v-38.875h2.8066v6.083a13.8628,13.8628,0,0,1,2.4482-3.2031A13.1383,13.1383,0,0,1,867.0371,536.6055Z"/>
      <path d="M902.459,551.1475v24.333H899.65V568.39c-2.9512,5.2549-8.6738,8.1709-15.55,8.1709-9.0713,0-13.4619-5.3271-13.4619-11.375,0-6.8388,5.039-9.9345,10.582-11.0859,6.1191-1.2246,14.3262-2.0517,18.2139-2.52.0722-8.7461-3.1319-13.03-11.95-13.03-6.5508,0-10.44,2.88-12.0225,8.8555L872.15,546.54c1.7275-7.1992,7.2715-11.0146,15.4785-11.0146,7.1982,0,12.166,3.168,13.8936,8.1348A26.3134,26.3134,0,0,1,902.459,551.1475Zm-3.0244,3.3837c-4.3916.3956-12.2383,1.044-17.5655,2.376-3.5273.8633-8.0625,3.0235-8.0625,8.3506,0,3.7432,2.4473,8.2793,10.15,8.2793,8.4229,0,14.1094-4.7519,15.1895-12.7432A47.7077,47.7077,0,0,0,899.4346,554.5312Z"/>
      <path d="M913.2617,523.6465h3.0235V572.457h25.7734v3.0235H913.2617Z"/>
      <path d="M948.4688,525.9512a2.6643,2.6643,0,1,1,2.664,2.6269A2.6134,2.6134,0,0,1,948.4688,525.9512Zm1.1523,10.6543h3.0234v38.875h-3.0234Z"/>
      <path d="M995.5527,536.6055V573.32a50.115,50.115,0,0,1-.3593,6.6953c-1.1524,9.4307-6.1914,13.8223-16.1973,13.8223-5.6152,0-11.7354-2.0879-15.2627-8.6387l2.6631-1.8c2.5918,5.3272,7.7754,7.3428,12.6,7.3428,10.4375,0,13.4619-5.9033,13.4619-17.4219v-5.3271c-2.6641,5.22-7.2715,8.5673-13.5342,8.5673-11.0156,0-16.9179-8.9267-16.9179-20.59,0-11.4463,5.9023-20.4453,16.3418-20.4453a15.093,15.093,0,0,1,14.3984,9.0351v-7.955Zm-2.8066,19.3652c0-10.15-4.752-17.4219-13.8223-17.4219-9.2871,0-13.6787,7.4873-13.6787,17.4219,0,10.0068,4.68,17.5664,13.6787,17.5664C988.0664,573.5371,992.7461,565.9775,992.7461,555.9707Z"/>
      <path d="M1038.248,554.3154v21.1651h-3.0234v-20.59c0-11.0859-4.6787-16.1972-12.7422-16.1972-9.5019,0-13.1015,7.1992-13.1015,15.55v21.2373h-3.0235v-51.834h2.8067v19.2578c2.88-5.0391,7.8476-7.1631,13.3183-7.1631C1032.3457,535.7412,1038.248,542.7969,1038.248,554.3154Z"/>
      <path d="M1056.18,562.5938c0,3.3837-.1445,5.1835.792,6.9833,1.7275,3.4561,5.3994,4.0313,11.4463,3.0235v2.88c-5.8311,1.2959-11.95.36-14.1817-4.5352-1.1523-2.5195-1.08-4.9678-1.08-8.3515V539.6289h-9.1425v-3.0234h9.1425V525.8066h3.0235v10.7989h12.2383v3.0234H1056.18Z"/>
    </g>
  </g>
</svg>
