<svg xmlns="http://www.w3.org/2000/svg" width="250" height="55" viewBox="0 0 250 55">
  <g>
    <path d="M0,0V24.3078A31.3462,31.3462,0,0,0,3.7936,37.2867c4.16,7.8571,10.9212,13.7889,20.097,17.6288L24.0951,55l.2032-.0846c19.59-8.1981,23.88-24.8737,23.88-30.6077V0ZM26.9028,51.6551l-2.8159-2.1286L21.27,51.6551l1.08-3.3981-2.9686-2.1395h3.6163l1.09-3.4159,1.0882,3.4159h3.6163L25.8241,48.257ZM39.62,38.5221a.6079.6079,0,0,1-.4581-.21l-.075-.0872H38.304l-.0709.0613A6.2367,6.2367,0,0,1,33.93,39.8585a4.801,4.801,0,0,1-2.9686-.7637,4.4258,4.4258,0,0,0-4.9758.0014l-.3464.2332.3682.1936a.7322.7322,0,0,1-.345,1.3759H22.5146A.7317.7317,0,0,1,22.17,39.523l.3667-.195-.3449-.23a4.4091,4.4091,0,0,0-2.4777-.7678,4.5428,4.5428,0,0,0-2.4995.765,4.7871,4.7871,0,0,1-2.9658.7637,6.2319,6.2319,0,0,1-4.3036-1.5723l-.07-.0613H9.0871l-.075.09a.5938.5938,0,0,1-.4554.2073.5375.5375,0,1,1,0-1.0718.5919.5919,0,0,1,.4568.2113l.075.0914h.9423V36.6049H9.09l-.075.0886a.5892.5892,0,0,1-.4555.2073.5375.5375,0,1,1,0-1.0718.5921.5921,0,0,1,.4582.2114l.075.0913h.9382V34.9835H9.094l-.075.0887a.5916.5916,0,0,1-.4569.2086.5374.5374,0,1,1,0-1.0718.5874.5874,0,0,1,.46.2127l.0736.09h.9355V33.3636H9.098l-.0736.0886a.5978.5978,0,0,1-.4568.2087.5376.5376,0,1,1,0-1.0719.5872.5872,0,0,1,.4568.2114l.0751.0913h.9313V31.7436h-.93l-.075.0886a.59.59,0,0,1-.4554.2086.5375.5375,0,1,1,0-1.0717.6012.6012,0,0,1,.46.2113l.075.09h.9259V30.1222H9.1062l-.075.0887a.5942.5942,0,0,1-.4582.2086.5374.5374,0,1,1,0-1.0718.5877.5877,0,0,1,.46.2127l.075.09h.9232V28.5036H9.1062l-.075.0873A.5939.5939,0,0,1,8.573,28.8a.5375.5375,0,1,1,0-1.0719.5918.5918,0,0,1,.46.21l.0736.09.7337.0068.7868-.3954V38.0339l.1159.21a5.8434,5.8434,0,0,0,6.2686.3955c2.048-1.1591,4.9267-1.2164,6.62,1.2477h-.8032a.2494.2494,0,0,0-.2482.25l0,0,0,.0005a.2494.2494,0,0,0,.2482.2488h2.5282a.2492.2492,0,0,0,.2481-.2488l0-.0005,0,0a.2494.2494,0,0,0-.2481-.25h-.8087c1.7223-2.5036,4.6076-2.265,6.63-1.2423,1.7891.9041,3.8863.7732,6.2345-.3886l.1391-.2223V27.6391l.7867.3954.7323-.0068.0736-.0886a.5963.5963,0,0,1,.4623-.2114.5374.5374,0,1,1,0,1.0719.6016.6016,0,0,1-.4608-.2087l-.0751-.0873h-.9231V29.65h.9218l.0749-.09a.5994.5994,0,0,1,.4623-.2127.5374.5374,0,1,1,0,1.0718.6.6,0,0,1-.4608-.2086l-.0751-.0887h-.9231V31.27h.9286l.075-.0913a.584.584,0,0,1,.4568-.21.5374.5374,0,1,1,0,1.0717.5925.5925,0,0,1-.4554-.2086l-.0751-.0886h-.93v1.1481h.9313l.0737-.09a.5893.5893,0,0,1,.4595-.2128.5375.5375,0,1,1,0,1.0719.5987.5987,0,0,1-.4582-.2087l-.075-.0886h-.9313v1.1481H39.08l.0749-.09a.596.596,0,0,1,.46-.2127.5374.5374,0,1,1,0,1.0718.5914.5914,0,0,1-.4568-.2086l-.075-.0887h-.9354v1.1482h.94l.075-.09a.5776.5776,0,0,1,.4568-.2127.5374.5374,0,1,1,0,1.0718.5942.5942,0,0,1-.4568-.2073l-.0737-.0886h-.9408V37.753h.9422l.0737-.09A.59.59,0,0,1,39.62,37.45a.5375.5375,0,1,1,0,1.0718ZM36.1386,24.96l-2.8159-2.1259L30.5055,24.961l1.0786-3.3982-2.9659-2.1381h3.6136l1.0909-3.4173,1.09,3.4173h3.615L35.06,21.5642Zm-5.15,1.39a7.2831,7.2831,0,0,0,4.9744.49l.0655.034v10.43c-1.4209.7282-2.5677.8768-4.6758-.2181a6.3158,6.3158,0,0,0-7.0131.7936V27.2314A6.63,6.63,0,0,1,30.9882,26.3491Zm.1336,11.179c2.359,1.2231,3.6722.994,5.2718.1459l.1322-.07V27.1223l.5264.2659.0014,10.4889c-2.1437,1.0268-4.0445,1.1359-5.6509.3232-2.1313-1.0772-5.1518-1.3472-7.0635,1.1291V38.548A5.838,5.838,0,0,1,31.1218,37.5281ZM11.783,37.674c1.6009.8495,2.9154,1.0772,5.2731-.1459a5.8476,5.8476,0,0,1,6.7854,1.02v.7814c-1.8872-2.4436-4.9064-2.3509-7.0759-1.1236a5.3317,5.3317,0,0,1-5.6412-.3109V27.3882l.5277-.2659V37.6044Zm12.0585.2045a6.5235,6.5235,0,0,0-4.1263-1.5136,6.2118,6.2118,0,0,0-2.8881.72c-2.111,1.0949-3.2564.9463-4.6772.2181v-10.43l.064-.034a7.2873,7.2873,0,0,0,4.9759-.49,6.6359,6.6359,0,0,1,6.6517.8823ZM17.6588,24.9909l-2.8172-2.13-2.8172,2.13,1.08-3.3981-2.9672-2.1409h3.615l1.0895-3.4172,1.09,3.4172h3.6164L16.58,21.5928Zm29.465-10.5244a7.8252,7.8252,0,0,0-3.9694,1.0692,7.4558,7.4558,0,0,1-7.4372,0,7.9247,7.9247,0,0,0-7.8476-.041l-.0669.0327a7.4579,7.4579,0,0,1-7.3921.026l-.0423-.03a7.93,7.93,0,0,0-7.7944-.0723l-.01-.0041-.1077.0641a7.4492,7.4492,0,0,1-7.4249-.0068l-.1527-.0791-.0013.0014a7.8,7.8,0,0,0-3.7991-.9873H1.0541V1.0554h46.07Z"/>
    <path d="M5.2176,6.118a.2986.2986,0,1,0-.2959-.2986A.2984.2984,0,0,0,5.2176,6.118Z"/>
    <path d="M2.25,10.85A12.0925,12.0925,0,0,1,5.3383,7.082,2.7443,2.7443,0,0,0,7.3837,8.631,3.1123,3.1123,0,0,0,9.2219,9.8229,2.7532,2.7532,0,0,0,9.6,11.4006l.0314.0082a.9158.9158,0,0,0-.0069.3163,11.3321,11.3321,0,0,0-1.204.9722,2.9457,2.9457,0,0,0-.6955.1924,1.2932,1.2932,0,0,0-1.23-.1527c-.0355.0149-.0887.064,0,.064.2822,0,.8372.2714.8236.3859-1.2123.0273-1.4142.55-1.5137.6859-.0422.0573,0,.0627.041.0423a5.1361,5.1361,0,0,1,1.7249-.2169.2974.2974,0,0,0,.1159.041,1.5692,1.5692,0,0,0-.4281.7732c.0054.0027-.0109.1663-.0028.2959.0028.1008.0477.0436.0723,0a1.7038,1.7038,0,0,1,.4581-.6055,2.0381,2.0381,0,0,0,.3069-.2809.8058.8058,0,0,1,.3328-.1977,1.3026,1.3026,0,0,0,.5372-.4568,1.7631,1.7631,0,0,1,.6041-.5114c.375-.1773,1.16-.4254,1.1808-.4445a.35.35,0,0,0,.2742-.29v-.2a.21.21,0,0,1,.09-.1732,2.4466,2.4466,0,0,1,1.1659-.4186,3.3093,3.3093,0,0,1,.4255,1.1931,4.2923,4.2923,0,0,1-.2891.5755c-.9314.1322-1.1318.5891-1.1482.6136-.0777.1132.0273.0669.045.0491a1.2867,1.2867,0,0,1,.9668-.195,1.4226,1.4226,0,0,0-.6027,1.2736c.015.1173.1091.0627.1227.01a2.3265,2.3265,0,0,1,1.1073-1.1291,1.6217,1.6217,0,0,0,.4637.8591c.0436.05.0927.0477.0844-.0233a2.6959,2.6959,0,0,1-.0654-1.0294.8083.8083,0,0,0,.135-.5687.2455.2455,0,0,1,.0218-.1923,1.7577,1.7577,0,0,0,.1036-.1867.2022.2022,0,0,0-.03-.2523,2.4339,2.4339,0,0,1-.3832-1.2478,3.1135,3.1135,0,0,0,2.1981-3.0912,4.8214,4.8214,0,0,0-5.3249-4.7209,3.3037,3.3037,0,0,0-2.46,1.1263,1.821,1.821,0,0,0-1.35-.6449A2.2146,2.2146,0,0,0,4.096,6.2788,15.0051,15.0051,0,0,0,1.977,9.7656a1.7411,1.7411,0,0,0,.1745,1.0936C2.1842,10.8838,2.2074,10.8838,2.25,10.85Zm.3634-1.4808A20.3251,20.3251,0,0,1,4.6353,6.3608C4.0217,5.0381,5.62,4.06,6.333,4.1681A1.246,1.246,0,0,1,7.5044,5.1867s.8727-1.4236,1.9963-1.4576a1.4416,1.4416,0,0,0-.3858.5058l.0026.0737a2.1406,2.1406,0,0,1,1.5-.53,1.792,1.792,0,0,0-.4977.4894l.0082.0369A2.1676,2.1676,0,0,1,11.88,4.2676a1.0594,1.0594,0,0,0-.6545.2823c-.0368.0327.0055.0327.0055.0327A2.45,2.45,0,0,1,13.66,7.108a2.3236,2.3236,0,0,1-1.879,2.17,4.6854,4.6854,0,0,0-.4213.9763,4.7421,4.7421,0,0,0-1.3923.8155s-.0136-.03-.0082.0041l-.0545-.0669a5.4414,5.4414,0,0,1-.2278-1.6308C8.4262,9.4917,7.7253,8.3163,7.5644,8.2c-1.4072-.09-2.02-1.68-2.1259-1.7632A11.1769,11.1769,0,0,0,2.6131,9.4262C2.6309,9.3908,2.5954,9.4031,2.6131,9.3689Z"/>
    <path d="M17.3829,10.85A12.076,12.076,0,0,1,20.4741,7.082,2.7405,2.7405,0,0,0,22.52,8.631,3.11,3.11,0,0,0,24.355,9.8229a2.7861,2.7861,0,0,0,.3777,1.5777l.0341.0082a.992.992,0,0,0-.0109.3163,11.7429,11.7429,0,0,0-1.2027.9722,3.0091,3.0091,0,0,0-.6955.1924,1.2908,1.2908,0,0,0-1.2285-.1527c-.0369.0149-.086.064,0,.064.2822,0,.8386.2714.8235.3859-1.2122.0273-1.4126.55-1.5136.6859-.04.0573,0,.0627.041.0423a5.1441,5.1441,0,0,1,1.7236-.2169.3076.3076,0,0,0,.1186.041,1.6029,1.6029,0,0,0-.4295.7732c.0041.0027-.0137.1663-.0014.2959.0014.1008.0478.0436.0709,0a1.7025,1.7025,0,0,1,.4582-.6055,2.038,2.038,0,0,0,.3068-.2809.7933.7933,0,0,1,.3341-.1977,1.3056,1.3056,0,0,0,.5359-.4568,1.7234,1.7234,0,0,1,.6054-.5114c.3723-.1773,1.1577-.4254,1.18-.4445.2414-.0777.2809-.2632.2741-.29v-.2a.2133.2133,0,0,1,.09-.1732,2.4445,2.4445,0,0,1,1.1672-.4186,3.28,3.28,0,0,1,.4241,1.1931,4.4617,4.4617,0,0,1-.2891.5755c-.93.1322-1.1318.5891-1.1468.6136-.0791.1132.0245.0669.0422.0491a1.295,1.295,0,0,1,.97-.195,1.4274,1.4274,0,0,0-.6068,1.2736c.0191.1173.1105.0627.1268.01a2.303,2.303,0,0,1,1.11-1.1291,1.6163,1.6163,0,0,0,.4595.8591c.0423.05.0955.0477.0832-.0233a2.71,2.71,0,0,1-.0614-1.0294.802.802,0,0,0,.1309-.5687.2372.2372,0,0,1,.0246-.1923,1.5456,1.5456,0,0,0,.1023-.1867.2023.2023,0,0,0-.03-.2523,2.4676,2.4676,0,0,1-.3832-1.2478,3.11,3.11,0,0,0,2.1967-3.0912A4.8173,4.8173,0,0,0,25.244,3.1657a3.3038,3.3038,0,0,0-2.46,1.1263,1.8233,1.8233,0,0,0-1.35-.6449,2.2155,2.2155,0,0,0-2.2037,2.6317,15.0129,15.0129,0,0,0-2.1191,3.4868,1.7678,1.7678,0,0,0,.1732,1.0936C17.32,10.8838,17.3433,10.8838,17.3829,10.85Zm.367-1.4808a20.1627,20.1627,0,0,1,2.02-3.0081c-.6122-1.3227.9845-2.3,1.6977-2.1927a1.2444,1.2444,0,0,1,1.1714,1.0186s.8741-1.4236,1.995-1.4576a1.4672,1.4672,0,0,0-.386.5058l.0069.0737a2.1251,2.1251,0,0,1,1.4972-.53,1.7974,1.7974,0,0,0-.4963.4894l.0081.0369a2.1664,2.1664,0,0,1,1.7523-.0369A1.0714,1.0714,0,0,0,26.36,4.55c-.0368.0327.0054.0327.0054.0327A2.4537,2.4537,0,0,1,28.7966,7.108a2.3294,2.3294,0,0,1-1.8818,2.17,4.7639,4.7639,0,0,0-.4213.9763,4.73,4.73,0,0,0-1.391.8155s-.0136-.03-.0081.0041l-.0532-.0669a5.371,5.371,0,0,1-.23-1.6308c-1.249.1159-1.9527-1.0595-2.11-1.1755-1.4086-.09-2.0208-1.68-2.1286-1.7632A11.1455,11.1455,0,0,0,17.75,9.4262C17.7663,9.3908,17.7322,9.4031,17.75,9.3689Z"/>
    <path d="M20.3544,6.118a.2986.2986,0,1,0-.3-.2986A.2981.2981,0,0,0,20.3544,6.118Z"/>
    <path d="M35.395,6.118a.2986.2986,0,1,0-.2973-.2986A.2984.2984,0,0,0,35.395,6.118Z"/>
    <path d="M32.4279,10.85A12.0563,12.0563,0,0,1,35.5151,7.082a2.7458,2.7458,0,0,0,2.0482,1.549,3.102,3.102,0,0,0,1.8354,1.1919,2.7861,2.7861,0,0,0,.3777,1.5777l.0327.0082a.9783.9783,0,0,0-.01.3163,11.3155,11.3155,0,0,0-1.2027.9722,3.0637,3.0637,0,0,0-.6982.1924A1.2915,1.2915,0,0,0,36.67,12.737c-.0327.0149-.0859.064,0,.064.2823,0,.8427.2714.8263.3859-1.2122.0273-1.414.55-1.5136.6859-.0409.0573,0,.0627.04.0423a5.1479,5.1479,0,0,1,1.725-.2169.2952.2952,0,0,0,.1172.041,1.54,1.54,0,0,0-.4282.7732,2.8293,2.8293,0,0,0-.0027.2959c.0027.1008.0463.0436.07,0a1.6988,1.6988,0,0,1,.4609-.6055,1.9747,1.9747,0,0,0,.3054-.2809.7968.7968,0,0,1,.3354-.1977,1.3337,1.3337,0,0,0,.5359-.4568,1.7514,1.7514,0,0,1,.6028-.5114c.3749-.1773,1.1618-.4254,1.1823-.4445.24-.0777.2794-.2632.2713-.29v-.2a.2138.2138,0,0,1,.0914-.1732,2.4545,2.4545,0,0,1,1.1658-.4186,3.1828,3.1828,0,0,1,.4242,1.1931,4.6256,4.6256,0,0,1-.2851.5755c-.9327.1322-1.1345.5891-1.1509.6136-.0777.1132.026.0669.0437.0491a1.2937,1.2937,0,0,1,.9681-.195,1.4153,1.4153,0,0,0-.6027,1.2736c.015.1173.1064.0627.1241.01a2.3116,2.3116,0,0,1,1.1087-1.1291,1.6156,1.6156,0,0,0,.4595.8591c.0463.05.0968.0477.0845-.0233a2.7385,2.7385,0,0,1-.0627-1.0294.7968.7968,0,0,0,.1322-.5687.2492.2492,0,0,1,.0246-.1923,1.5456,1.5456,0,0,0,.1023-.1867c.08-.1378-.0028-.2019-.03-.2523a2.4621,2.4621,0,0,1-.3846-1.2478,3.11,3.11,0,0,0,2.2-3.0912,4.82,4.82,0,0,0-5.3263-4.7209,3.3153,3.3153,0,0,0-2.46,1.1263,1.812,1.812,0,0,0-1.3459-.6449,2.2136,2.2136,0,0,0-2.2036,2.6317,14.9338,14.9338,0,0,0-2.1218,3.4868,1.7882,1.7882,0,0,0,.1732,1.0936C32.36,10.8838,32.3856,10.8838,32.4279,10.85Zm.364-1.4808a20.12,20.12,0,0,1,2.0208-3.0081c-.6136-1.3227.9818-2.3,1.695-2.1927a1.2486,1.2486,0,0,1,1.1741,1.0186s.8713-1.4236,1.9949-1.4576a1.3841,1.3841,0,0,0-.3832.5058l.0028.0737a2.1308,2.1308,0,0,1,1.4986-.53,1.8182,1.8182,0,0,0-.4977.4894l.0081.0369a2.1649,2.1649,0,0,1,1.7523-.0369,1.0675,1.0675,0,0,0-.6559.2823c-.0368.0327.0055.0327.0055.0327A2.4527,2.4527,0,0,1,43.8384,7.108a2.3264,2.3264,0,0,1-1.8817,2.17,4.6643,4.6643,0,0,0-.42.9763,4.7435,4.7435,0,0,0-1.3923.8155s-.0122-.03-.0081.0041l-.0519-.0669a5.3186,5.3186,0,0,1-.229-1.6308c-1.25.1159-1.9568-1.0595-2.1137-1.1755-1.4072-.09-2.0194-1.68-2.1258-1.7632a11.1688,11.1688,0,0,0-2.824,2.9891C32.8068,9.3908,32.7755,9.4031,32.7919,9.3689Z"/>
  </g>
  <g>
    <path d="M62.2588,1.0557V5.769c0,1.8829-1.3433,2.4947-2.8423,2.4947-1.5112,0-2.8545-.6118-2.8545-2.4947V1.0557h1.4512V5.373c0,1.0914.3716,1.6792,1.4033,1.6792,1.02,0,1.3911-.5878,1.3911-1.6792V1.0557Z"/>
    <path d="M65,3.646a1.7245,1.7245,0,0,1,1.7749-1.1992A1.5566,1.5566,0,0,1,68.418,4.186V8.12H66.9907V4.69c0-.6358-.2163-1.0313-.8159-1.0313-.5757,0-1.1152.3115-1.1152,1.3672V8.12H63.6323V2.5786h1.1992Z"/>
    <path d="M70.4312,0a.8474.8474,0,0,1,.9238.8638.8424.8424,0,0,1-.9238.8393.8314.8314,0,0,1-.8873-.8393A.8369.8369,0,0,1,70.4312,0Zm.72,2.5786V8.12H69.7236V2.5786Z"/>
    <path d="M71.8716,2.5786H73.395l.8277,2.6987a12.2928,12.2928,0,0,1,.3955,1.7867h.0478a12.2577,12.2577,0,0,1,.396-1.7867l.8394-2.6987h1.4751L75.41,8.12H73.8145Z"/>
    <path d="M81.3076,6.3564l1.2232.396a2.1178,2.1178,0,0,1-2.3267,1.5113,2.5335,2.5335,0,0,1-2.6025-2.8428c0-1.8945,1.0195-2.9741,2.6386-2.9741A2.1777,2.1777,0,0,1,82.5308,4.87a2.8989,2.8989,0,0,1-.0835.7432H78.981c.0361.9238.4677,1.5474,1.2714,1.5474A.9991.9991,0,0,0,81.3076,6.3564Zm-.1557-1.5952a1.2587,1.2587,0,0,0,.0117-.2036A.9441.9441,0,0,0,80.18,3.5264c-.66,0-1.0791.4795-1.1631,1.2348Z"/>
    <path d="M87.0747,4.042A2.089,2.089,0,0,0,86.499,3.97a1.4017,1.4017,0,0,0-1.4634,1.5235V8.12H83.6084V2.5786h1.2354L85.0117,4.09a1.9254,1.9254,0,0,1,2.2066-1.6313Z"/>
    <path d="M88.7734,6.4048a1.0038,1.0038,0,0,0,1.1153.8515c.5161,0,.8755-.18.8755-.5639,0-.36-.2159-.54-.7554-.6836l-.8154-.1919a1.5667,1.5667,0,0,1-1.4156-1.6191c0-1.3433,1.0918-1.751,2.2071-1.751,1.2592,0,2.0268.4555,2.1225,1.5351l-1.355.1919c-.0478-.48-.3237-.66-.8393-.66-.4561,0-.7437.2041-.7437.5517,0,.3115.1675.5039.6114.5874l.78.18c1.0791.24,1.607.7915,1.607,1.7388,0,1.2236-.9834,1.6914-2.2905,1.6914-1.3316,0-2.1109-.3838-2.3028-1.4156Z"/>
    <path d="M93.8853,0a.8474.8474,0,0,1,.9238.8638.8424.8424,0,0,1-.9238.8393A.8314.8314,0,0,1,92.998.8638.8369.8369,0,0,1,93.8853,0Zm.72,2.5786V8.12H93.1777V2.5786Z"/>
    <path d="M99.5,7.9155a3.39,3.39,0,0,1-1.5835.3482,1.549,1.549,0,0,1-1.751-1.7154V3.6938h-.8032V2.5786h.8154V1.4033l1.4273-.1679V2.5786h1.643V3.6938H97.5928v2.543c0,.6.2519.8032.6958.8032a1.6491,1.6491,0,0,0,.9594-.3237Z"/>
    <path d="M102.1587,5.2773a12.4848,12.4848,0,0,1,.396,1.7749h.0478a11.7682,11.7682,0,0,1,.4078-1.7749l.8154-2.6987h1.4995L103.19,8.5991c-.6113,1.6914-1.3549,2.0152-2.4462,2.0152a3.912,3.912,0,0,1-.9239-.1319l.1919-1.2475a1.4557,1.4557,0,0,0,.72.18c.54,0,.8516-.2519,1.1153-.9834l-2.0508-5.853h1.5591Z"/>
    <path d="M108.22,5.3252c0-1.8828,1.0435-2.8784,2.6265-2.8784s2.6269.9956,2.6269,2.8784-1.0434,2.9385-2.6269,2.9385S108.22,7.208,108.22,5.3252Zm1.4156.0122c0,1.2231.3955,1.8105,1.2109,1.8105.8276,0,1.2236-.5874,1.2236-1.8105,0-1.1875-.4077-1.7393-1.2236-1.7393C110.043,3.5981,109.6353,4.15,109.6353,5.3374Z"/>
    <path d="M113.9321,3.6938V2.5786h.8155V2.0991A1.8964,1.8964,0,0,1,116.8584.0122a3.21,3.21,0,0,1,1.2832.252l-.2275,1.1992a1.7608,1.7608,0,0,0-.9239-.24c-.4917,0-.8154.2159-.8154.9234v.4316h1.415V3.6938h-1.415V8.12h-1.4272V3.6938Z"/>
    <path d="M124.8252,6.4888h-2.7466L121.5269,8.12h-1.523L122.57,1.0557h1.8233L126.96,8.12h-1.5591Zm-2.3389-1.2h1.919l-.3716-1.0552a13.6693,13.6693,0,0,1-.5518-1.9668h-.0483a18.2925,18.2925,0,0,1-.5752,1.9546Z"/>
    <path d="M130.937,7.1a1.545,1.545,0,0,1-1.7148,1.1636c-.9834,0-1.667-.5039-1.667-1.7993V2.5786h1.4272V6.105c0,.7075.24,1.0791.8394,1.0791.5635,0,1.0913-.4678,1.0913-1.5352v-3.07H132.34V8.12H131.105Z"/>
    <path d="M138.2705,6.6562a2.0569,2.0569,0,0,1-2.2788,1.6075c-1.5591,0-2.6025-1.0435-2.6025-2.8907s1.0434-2.9262,2.6386-2.9262a1.92,1.92,0,0,1,2.1587,1.7871l-1.2231.3237c-.0962-.6235-.396-.9717-.96-.9717-.8037,0-1.2236.6958-1.2236,1.7754,0,1.0913.4677,1.7866,1.2475,1.7866a.935.935,0,0,0,.9834-.8632Z"/>
    <path d="M144.2964,8.12h-1.6909L140.9263,5.769h-.336V8.12h-1.4272V.1079H140.59V4.6655h.3l1.5474-2.0869h1.6787l-2.0268,2.5786Z"/>
    <path d="M147.2046,8.0957a3.1929,3.1929,0,0,1-.8394.1318,1.2863,1.2863,0,0,1-1.4511-1.3432V.1079h1.4272V6.4888a.4511.4511,0,0,0,.5034.4917,1.0561,1.0561,0,0,0,.42-.084Z"/>
    <path d="M152.4893,6.5605c0,.3956.1679.5157.4077.5157a.7735.7735,0,0,0,.3359-.084V8.0479a1.5717,1.5717,0,0,1-.8032.1674,1.1183,1.1183,0,0,1-1.26-.8755,1.5561,1.5561,0,0,1-1.6191.9239,1.4738,1.4738,0,0,1-1.6431-1.5113c0-1.2353.9839-1.9189,3.1543-1.7988V4.3657c0-.54-.2637-.8276-.7554-.8276-.5039,0-.7675.312-.8037.8393L148.1,4.126c.084-1.1753,1.0918-1.6792,2.2788-1.6792,1.2715,0,2.1109.5395,2.1109,1.7871Zm-1.4273-.8037c-1.2471-.0356-1.727.2759-1.727.84a.6261.6261,0,0,0,.708.6352.9131.9131,0,0,0,1.019-.8271Z"/>
    <path d="M155.4482,3.646a1.7248,1.7248,0,0,1,1.7754-1.1992,1.5565,1.5565,0,0,1,1.6431,1.7392V8.12H157.44V4.69c0-.6358-.2159-1.0313-.816-1.0313-.5756,0-1.1152.3115-1.1152,1.3672V8.12h-1.4272V2.5786H155.28Z"/>
    <path d="M163.82.1079h1.4273V8.12H164l-.168-.9594a1.58,1.58,0,0,1-1.7387,1.1035c-1.2115,0-2.2071-.96-2.2071-2.8067,0-1.8828.8877-3.01,2.4707-3.01A1.4716,1.4716,0,0,1,163.82,3.31Zm.0117,4.6416a1.1432,1.1432,0,0,0-1.187-1.2353c-.6958,0-1.3193.4917-1.3193,1.8828,0,1.14.5034,1.7632,1.3071,1.7632a1.2287,1.2287,0,0,0,1.1992-1.3072Z"/>
    <path d="M57.9053,21.3193V15.5146H55.9385V14.2554h5.4087v1.2592H59.3564v5.8047Z"/>
    <path d="M64.793,19.5562l1.2231.3959A2.1177,2.1177,0,0,1,63.69,21.4634a2.5336,2.5336,0,0,1-2.6026-2.8428c0-1.8945,1.02-2.9741,2.6387-2.9741a2.1777,2.1777,0,0,1,2.29,2.4228,2.8944,2.8944,0,0,1-.0835.7432H62.4663c.0361.9238.4678,1.5474,1.2715,1.5474A.9991.9991,0,0,0,64.793,19.5562Zm-.1558-1.5948a1.2677,1.2677,0,0,0,.0117-.2041.944.944,0,0,0-.9834-1.0312c-.66,0-1.0791.48-1.1631,1.2353Z"/>
    <path d="M75.8794,18.3208c.24,1.0435.36,1.9673.36,1.9673h.0478s.0962-.9356.312-1.9551l.8994-4.0776h1.4751l-1.643,7.0639H75.2319l-.9-3.7177a10.9015,10.9015,0,0,1-.2876-1.9429h-.0478a12.0842,12.0842,0,0,1-.3,1.9546l-.9239,3.706H70.7222l-1.6431-7.0639h1.5474l.9111,4.0537c.228,1.0434.3359,1.979.3359,1.979h.0479a17.3729,17.3729,0,0,1,.3359-1.9673l.9478-4.0654h1.7265Z"/>
    <path d="M81.2554,16.834a1.6621,1.6621,0,0,1,1.7153-1.1875,1.5563,1.5563,0,0,1,1.6431,1.7388v3.934H83.1865v-3.43c0-.6358-.2158-1.0313-.8159-1.0313-.5757,0-1.1152.3-1.1152,1.3672v3.0942H79.8281V13.3076h1.4273Z"/>
    <path d="M90.1479,19.76c0,.3955.168.5156.4078.5156a.7735.7735,0,0,0,.3359-.084v1.0557a1.5723,1.5723,0,0,1-.8037.1679,1.1184,1.1184,0,0,1-1.2593-.8759,1.5565,1.5565,0,0,1-1.6186.9238,1.474,1.474,0,0,1-1.6436-1.5113c0-1.2353.9839-1.9189,3.1543-1.7993v-.5874c0-.54-.2637-.8276-.7554-.8276-.5039,0-.7675.312-.8037.84l-1.4033-.2519c.084-1.1753,1.0918-1.6792,2.2788-1.6792,1.2715,0,2.1108.54,2.1108,1.7871Zm-1.4272-.8038c-1.2471-.0361-1.727.2759-1.727.84a.6261.6261,0,0,0,.708.6352.9134.9134,0,0,0,1.019-.8271Z"/>
    <path d="M95.2065,17.2417a2.1036,2.1036,0,0,0-.5756-.0723,1.4019,1.4019,0,0,0-1.4634,1.5235v2.6264H91.74v-5.541h1.2354l.168,1.5113A1.9247,1.9247,0,0,1,95.35,15.6587Z"/>
    <path d="M99.5142,19.5562l1.2231.3959a2.1178,2.1178,0,0,1-2.3267,1.5113,2.5336,2.5336,0,0,1-2.6025-2.8428c0-1.8945,1.02-2.9741,2.6387-2.9741a2.1777,2.1777,0,0,1,2.2905,2.4228,2.8718,2.8718,0,0,1-.084.7432H97.1875c.0361.9238.4678,1.5474,1.2715,1.5474A.9991.9991,0,0,0,99.5142,19.5562Zm-.1558-1.5948a1.2677,1.2677,0,0,0,.0117-.2041.944.944,0,0,0-.9834-1.0312c-.66,0-1.0791.48-1.1631,1.2353Z"/>
    <path d="M110.6,18.3208c.24,1.0435.36,1.9673.36,1.9673h.0478s.0962-.9356.312-1.9551l.8994-4.0776h1.4751l-1.643,7.0639h-2.0987l-.9-3.7177a10.9015,10.9015,0,0,1-.2876-1.9429h-.0478a12.0842,12.0842,0,0,1-.3,1.9546l-.9238,3.706h-2.0508L103.8,14.2554h1.5474l.9111,4.0537c.228,1.0434.3359,1.979.3359,1.979h.0479a17.3729,17.3729,0,0,1,.3359-1.9673l.9478-4.0654h1.7265Z"/>
    <path d="M118.6172,19.76c0,.3955.168.5156.4077.5156a.7735.7735,0,0,0,.3359-.084v1.0557a1.5712,1.5712,0,0,1-.8032.1679,1.1185,1.1185,0,0,1-1.26-.8759,1.5569,1.5569,0,0,1-1.6192.9238,1.4738,1.4738,0,0,1-1.6431-1.5113c0-1.2353.9839-1.9189,3.1543-1.7993v-.5874c0-.54-.2636-.8276-.7553-.8276-.5039,0-.7676.312-.8037.84l-1.4034-.2519c.084-1.1753,1.0918-1.6792,2.2788-1.6792,1.2715,0,2.1109.54,2.1109,1.7871Zm-3.814-4.9776V13.62h3.3946v1.1631Zm2.3867,4.1738c-1.247-.0361-1.727.2759-1.727.84a.6261.6261,0,0,0,.708.6352.9131.9131,0,0,0,1.019-.8271Z"/>
    <path d="M121.61,16.8457a1.7247,1.7247,0,0,1,1.7753-1.1992,1.5563,1.5563,0,0,1,1.6431,1.7388v3.934h-1.4272v-3.43c0-.6358-.2159-1.0313-.816-1.0313-.5756,0-1.1152.3115-1.1152,1.3672v3.0942h-1.4272v-5.541h1.1992Z"/>
    <path d="M130.563,19.76c0,.3955.168.5156.4077.5156a.7735.7735,0,0,0,.3359-.084v1.0557a1.572,1.572,0,0,1-.8037.1679,1.1182,1.1182,0,0,1-1.2592-.8759,1.5567,1.5567,0,0,1-1.6187.9238,1.474,1.474,0,0,1-1.6436-1.5113c0-1.2353.9839-1.9189,3.1543-1.7993v-.5874c0-.54-.2636-.8276-.7553-.8276-.5039,0-.7676.312-.8037.84l-1.4034-.2519c.084-1.1753,1.0918-1.6792,2.2788-1.6792,1.2715,0,2.1109.54,2.1109,1.7871Zm-1.4273-.8038c-1.247-.0361-1.727.2759-1.727.84a.6261.6261,0,0,0,.708.6352.9134.9134,0,0,0,1.019-.8271Z"/>
    <path d="M133.5225,16.8457a1.7247,1.7247,0,0,1,1.7754-1.1992,1.5563,1.5563,0,0,1,1.643,1.7388v3.934h-1.4272v-3.43c0-.6358-.2158-1.0313-.8159-1.0313-.5757,0-1.1153.3115-1.1153,1.3672v3.0942h-1.4272v-5.541h1.1992Z"/>
    <path d="M141.8862,16.03a1.2776,1.2776,0,0,0,.42-.8394l1.1513.3838a1.2855,1.2855,0,0,1-.9717,1.0313,1.8585,1.8585,0,0,1,.252.9956c0,1.2832-1.1035,1.9189-2.4585,1.9189a2.4486,2.4486,0,0,1-.6836-.084.5286.5286,0,0,0-.3.4917c0,.24.1675.3838.4917.3838h1.499c1.2593,0,1.9551.6235,1.9551,1.5952,0,1.5469-1.6074,1.9429-3.1543,1.9429-1.3193,0-2.5308-.3242-2.5308-1.4155,0-.6714.48-1.0913,1.4512-1.1631a.9136.9136,0,0,1-.8516-.9478,1.08,1.08,0,0,1,.8877-1.0434,1.6654,1.6654,0,0,1-1.1274-1.6787c0-1.2715.9595-1.9551,2.3867-1.9551A3.0014,3.0014,0,0,1,141.8862,16.03Zm-1.643,6.8481c1.1274,0,1.643-.2036,1.643-.7314,0-.36-.2041-.5518-.7675-.5518h-1.3072c-.5639,0-.9355.1919-.9355.6C138.876,22.6748,139.3916,22.8784,140.2432,22.8784Zm.06-4.3174a.8751.8751,0,0,0,.9712-.9594.9595.9595,0,1,0-1.9189,0A.8793.8793,0,0,0,140.3032,18.561Z"/>
    <path d="M148.1748,19.76c0,.3955.168.5156.4077.5156a.7743.7743,0,0,0,.336-.084v1.0557a1.5719,1.5719,0,0,1-.8033.1679,1.1185,1.1185,0,0,1-1.26-.8759,1.5569,1.5569,0,0,1-1.6192.9238,1.4737,1.4737,0,0,1-1.643-1.5113c0-1.2353.9838-1.9189,3.1543-1.7993v-.5874c0-.54-.2637-.8276-.7554-.8276-.5039,0-.7676.312-.8037.84l-1.4033-.2519c.0839-1.1753,1.0918-1.6792,2.2788-1.6792,1.2714,0,2.1108.54,2.1108,1.7871Zm-1.4272-.8038c-1.2471-.0361-1.7271.2759-1.7271.84a.6262.6262,0,0,0,.708.6352.9132.9132,0,0,0,1.0191-.8271Z"/>
    <path d="M151.9932,18.5249c0-1.8828,1.0434-2.8784,2.6264-2.8784s2.627.9956,2.627,2.8784-1.0435,2.9385-2.627,2.9385S151.9932,20.4077,151.9932,18.5249Zm1.4155.0117c0,1.2237.3955,1.8111,1.2109,1.8111.8277,0,1.2237-.5874,1.2237-1.8111,0-1.187-.4078-1.7387-1.2237-1.7387C153.8164,16.7979,153.4087,17.35,153.4087,18.5366Z"/>
    <path d="M162.18,21.3193V15.5146h-1.9668V14.2554h5.4087v1.2592h-1.9908v5.8047Z"/>
    <path d="M170.4473,19.76c0,.3955.1679.5156.4077.5156a.7735.7735,0,0,0,.3359-.084v1.0557a1.5715,1.5715,0,0,1-.8032.1679,1.1186,1.1186,0,0,1-1.26-.8759,1.5567,1.5567,0,0,1-1.6191.9238,1.4738,1.4738,0,0,1-1.6431-1.5113c0-1.2353.9839-1.9189,3.1543-1.7993v-.5874c0-.54-.2637-.8276-.7554-.8276-.5039,0-.7675.312-.8037.84l-1.4033-.2519c.084-1.1753,1.0918-1.6792,2.2788-1.6792,1.2715,0,2.1109.54,2.1109,1.7871Zm-3.814-4.9776V13.62h3.3945v1.1631Zm2.3867,4.1738c-1.2471-.0361-1.727.2759-1.727.84a.6261.6261,0,0,0,.708.6352.9131.9131,0,0,0,1.019-.8271Z"/>
    <path d="M178.4058,15.6465a1.5075,1.5075,0,0,1,1.6069,1.7148v3.958h-1.4268v-3.43c0-.6358-.2163-1.0313-.8037-1.0313-.5395,0-1.0195.3477-1.0195,1.3672v3.0942h-1.439v-3.43c0-.6358-.2041-1.0313-.792-1.0313-.54,0-1.0312.36-1.0312,1.3672v3.0942h-1.4273v-5.541h1.1993l.1679,1.0674a1.6775,1.6775,0,0,1,1.7154-1.1992,1.3359,1.3359,0,0,1,1.4751,1.2114A1.7572,1.7572,0,0,1,178.4058,15.6465Z"/>
    <path d="M185.562,19.76c0,.3955.168.5156.4077.5156a.7736.7736,0,0,0,.336-.084v1.0557a1.5723,1.5723,0,0,1-.8037.1679,1.1184,1.1184,0,0,1-1.2593-.8759,1.5566,1.5566,0,0,1-1.6187.9238,1.4739,1.4739,0,0,1-1.6435-1.5113c0-1.2353.9839-1.9189,3.1543-1.7993v-.5874c0-.54-.2637-.8276-.7554-.8276-.5039,0-.7676.312-.8037.84l-1.4033-.2519c.0839-1.1753,1.0918-1.6792,2.2788-1.6792,1.2715,0,2.1108.54,2.1108,1.7871Zm-1.4272-.8038c-1.2471-.0361-1.7271.2759-1.7271.84a.6262.6262,0,0,0,.708.6352.9134.9134,0,0,0,1.0191-.8271Z"/>
    <path d="M192.2876,21.3193h-1.6909l-1.6792-2.35h-.336v2.35h-1.4272V13.3076h1.4272v4.5576h.3l1.5474-2.0869h1.6787l-2.0268,2.5786Z"/>
    <path d="M193.7539,13.2a.8544.8544,0,1,1,0,1.7031.8523.8523,0,1,1,0-1.7031Zm.72,2.5786v5.541h-1.4272v-5.541Z"/>
    <path d="M201.6841,19.6523l-1.0913-1.895a5.7729,5.7729,0,0,1-.5279-1.1152h-.0478a9.4111,9.4111,0,0,1,.06,1.2231v3.4541h-1.4516V14.2554h1.5351L201.6,16.93a4.46,4.46,0,0,1,.4556.9834h.0483a5.3514,5.3514,0,0,1,.4556-.9834l1.4511-2.6743H205.51v7.0639h-1.4512V17.8652a7.833,7.833,0,0,1,.0723-1.2231h-.0484a6.4077,6.4077,0,0,1-.54,1.1152l-1.0913,1.895Z"/>
    <path d="M211.251,19.76c0,.3955.1679.5156.4077.5156a.7735.7735,0,0,0,.3359-.084v1.0557a1.5712,1.5712,0,0,1-.8032.1679,1.1186,1.1186,0,0,1-1.26-.8759,1.5567,1.5567,0,0,1-1.6191.9238,1.4738,1.4738,0,0,1-1.6431-1.5113c0-1.2353.9839-1.9189,3.1543-1.7993v-.5874c0-.54-.2636-.8276-.7553-.8276-.5039,0-.7676.312-.8038.84l-1.4033-.2519c.084-1.1753,1.0918-1.6792,2.2788-1.6792,1.2715,0,2.1109.54,2.1109,1.7871Zm-1.4273-.8038c-1.247-.0361-1.727.2759-1.727.84a.6261.6261,0,0,0,.708.6352.9131.9131,0,0,0,1.019-.8271Z"/>
    <path d="M217.9766,21.3193h-1.691l-1.6792-2.35h-.3359v2.35h-1.4272V13.3076h1.4272v4.5576h.3l1.5474-2.0869h1.6787L215.77,18.3569Z"/>
    <path d="M222.8906,19.76c0,.3955.168.5156.4077.5156a.7736.7736,0,0,0,.336-.084v1.0557a1.5715,1.5715,0,0,1-.8032.1679,1.1186,1.1186,0,0,1-1.26-.8759,1.5569,1.5569,0,0,1-1.6192.9238,1.4738,1.4738,0,0,1-1.643-1.5113c0-1.2353.9839-1.9189,3.1543-1.7993v-.5874c0-.54-.2637-.8276-.7554-.8276-.5039,0-.7676.312-.8037.84l-1.4033-.2519c.084-1.1753,1.0918-1.6792,2.2788-1.6792,1.2715,0,2.1108.54,2.1108,1.7871Zm-1.4272-.8038c-1.2471-.0361-1.7271.2759-1.7271.84a.6262.6262,0,0,0,.708.6352.9132.9132,0,0,0,1.0191-.8271Z"/>
    <path d="M227.7871,20.3a1.545,1.545,0,0,1-1.7148,1.1636c-.9834,0-1.667-.5039-1.667-1.7993V15.7783h1.4272v3.5259c0,.708.24,1.08.8394,1.08.5635,0,1.0913-.4678,1.0913-1.5352v-3.07H229.19v5.541h-1.2353Z"/>
    <path d="M234.0029,17.2417a2.1038,2.1038,0,0,0-.5757-.0723,1.4019,1.4019,0,0,0-1.4633,1.5235v2.6264h-1.4273v-5.541h1.2354L231.94,17.29a1.9248,1.9248,0,0,1,2.2066-1.6309Z"/>
    <path d="M239.15,19.76c0,.3955.168.5156.4077.5156a.7735.7735,0,0,0,.3359-.084v1.0557a1.5712,1.5712,0,0,1-.8032.1679,1.1185,1.1185,0,0,1-1.26-.8759,1.5569,1.5569,0,0,1-1.6192.9238,1.4738,1.4738,0,0,1-1.6431-1.5113c0-1.2353.9839-1.9189,3.1543-1.7993v-.5874c0-.54-.2636-.8276-.7553-.8276-.5039,0-.7676.312-.8037.84l-1.4034-.2519c.084-1.1753,1.0918-1.6792,2.2789-1.6792,1.2714,0,2.1108.54,2.1108,1.7871Zm-1.4273-.8038c-1.247-.0361-1.727.2759-1.727.84a.6261.6261,0,0,0,.708.6352.9131.9131,0,0,0,1.019-.8271Z"/>
    <path d="M244.0464,20.3a1.5451,1.5451,0,0,1-1.7149,1.1636c-.9834,0-1.6669-.5039-1.6669-1.7993V15.7783h1.4272v3.5259c0,.708.24,1.08.8394,1.08.5634,0,1.0913-.4678,1.0913-1.5352v-3.07H245.45v5.541h-1.2353Z"/>
    <path d="M56.8379,34.52V27.4556h4.0059v.8154h-3.07v2.3144h2.6983v.816H57.7734V34.52Z"/>
    <path d="M65.5635,33.332c0,.4322.2036.5161.4194.5161a.7087.7087,0,0,0,.3-.0483v.7319a1.7889,1.7889,0,0,1-.4917.0718.9525.9525,0,0,1-1.0791-.8994,1.6587,1.6587,0,0,1-1.6431.96,1.4886,1.4886,0,0,1-1.6674-1.4873c0-1.2232.9355-1.9429,3.25-1.835v-.7436c0-.7437-.48-1.0074-1.1153-1.0074a.9725.9725,0,0,0-1.1157.9234l-.8394-.12c.084-1.1757,1.1275-1.5473,2.063-1.5473.9712,0,1.919.3838,1.919,1.667Zm-.9116-1.3432c-1.607-.0357-2.3389.312-2.3389,1.08a.8625.8625,0,0,0,.9717.8877c.6357,0,1.3672-.396,1.3672-1.08Z"/>
    <path d="M71.4072,33.1523c-.18,1.1153-1.0556,1.5113-2.1108,1.5113-1.4033,0-2.375-1.02-2.375-2.8784,0-1.8472.9717-2.9385,2.4707-2.9385A1.7311,1.7311,0,0,1,71.335,30.55l-.8516.1318a1.1015,1.1015,0,0,0-1.1514-1.0795c-1.0073,0-1.5351.9116-1.5351,2.1948,0,1.2236.624,2.1347,1.5952,2.1347a1.1819,1.1819,0,0,0,1.2475-.9472Z"/>
    <path d="M75.8594,33.5239a1.5938,1.5938,0,0,1-1.7032,1.14c-1.0073,0-1.6791-.5157-1.6791-1.8472V28.9785h.9116v3.7539c0,.8755.3359,1.2593,1.0674,1.2593a1.5084,1.5084,0,0,0,1.3793-1.6431v-3.37h.9117V34.52h-.78Z"/>
    <path d="M80.0415,34.5317a2.4925,2.4925,0,0,1-.5874.0718,1.0643,1.0643,0,0,1-1.1758-1.1274V26.5078H79.19V33.332a.4431.4431,0,0,0,.48.5039,1.0921,1.0921,0,0,0,.3716-.06Z"/>
    <path d="M83.8511,34.3516a2.3446,2.3446,0,0,1-1.2232.312,1.3626,1.3626,0,0,1-1.5234-1.4873V29.71h-.8032v-.7315h.8032V27.8032l.9238-.12v1.2954h1.6431V29.71H82.0161v3.2983c0,.6118.2759.8755.7437.8755a1.4994,1.4994,0,0,0,.9116-.2876Z"/>
    <path d="M86.3418,32.1929a14.0158,14.0158,0,0,1,.4561,1.7387h.0478a16.508,16.508,0,0,1,.4316-1.727l.9717-3.2261h.9473l-1.9907,5.9849c-.54,1.6069-1.2354,2.0508-2.1592,2.0508a2.2745,2.2745,0,0,1-.7554-.1319l.06-.7558a1.6185,1.6185,0,0,0,.7192.1562c.6118,0,.9478-.3481,1.3076-1.4394l-2.0508-5.8648h.9952Z"/>
    <path d="M92.2705,31.7129c0-1.8828.9717-2.8662,2.4707-2.8662s2.4707.9834,2.4707,2.8662c0,1.895-.9717,2.9507-2.4707,2.9507S92.2705,33.6079,92.2705,31.7129Zm.8994,0c0,1.4756.5279,2.2309,1.5713,2.2309s1.5713-.7553,1.5713-2.2309c0-1.439-.54-2.1226-1.5713-2.1226S93.17,30.2739,93.17,31.7129Z"/>
    <path d="M97.7666,29.71v-.7315H98.57v-.6958a1.6686,1.6686,0,0,1,1.7988-1.8589,2.8835,2.8835,0,0,1,1.08.2158l-.1919.792a1.6375,1.6375,0,0,0-.8632-.24c-.5757,0-.9117.312-.9117,1.14v.6474h1.4151V29.71H99.4819v4.81H98.57V29.71Z"/>
    <path d="M108.5034,34.52h-4.2217V27.4556h4.2217v.8154h-3.2861v2.3144h2.914v.816h-2.914v2.3027h3.2861Z"/>
    <path d="M110.4648,30.0459a1.7337,1.7337,0,0,1,1.7754-1.1992,1.5612,1.5612,0,0,1,1.7027,1.7031v3.97h-.9112V30.7778c0-.708-.36-1.14-1.0434-1.14-.732,0-1.4033.3838-1.4033,1.6553V34.52h-.9117v-5.541h.6836Z"/>
    <path d="M118.9365,29.3262c.2759-.12.3721-.4434.4322-.8394l.8154.2881a1.1379,1.1379,0,0,1-.8994.9834,1.9715,1.9715,0,0,1,.2636,1.0552,1.9419,1.9419,0,0,1-2.1948,1.9189,2.3424,2.3424,0,0,1-.7314-.0957.65.65,0,0,0-.42.6113c0,.3482.2281.504.648.504h1.2832c1.2471,0,1.9067.5039,1.9067,1.5112,0,1.415-1.5229,1.7871-2.9262,1.7871-1.1875,0-2.3745-.312-2.3745-1.4756a1.3533,1.3533,0,0,1,1.415-1.3188.7849.7849,0,0,1-.7314-.8277.8941.8941,0,0,1,.7915-.9238,1.7565,1.7565,0,0,1-1.0557-1.6909,1.9421,1.9421,0,0,1,2.1709-1.9668A2.49,2.49,0,0,1,118.9365,29.3262Zm-1.751,7.0644c1.1275,0,1.9791-.228,1.9791-1.0073,0-.4561-.24-.8276-1.0313-.8276h-1.14c-.9,0-1.379.3-1.379.9594C115.6147,36.1626,116.2983,36.3906,117.1855,36.3906Zm.1441-4.33a1.2655,1.2655,0,1,0-1.2832-1.2592A1.1841,1.1841,0,0,0,117.33,32.061Z"/>
    <path d="M121.5845,26.52a.6536.6536,0,1,1,0,1.3071.6538.6538,0,0,1,0-1.3071Zm.4677,2.4585V34.52h-.9116v-5.541Z"/>
    <path d="M124.4014,30.0459a1.7337,1.7337,0,0,1,1.7754-1.1992,1.5612,1.5612,0,0,1,1.7026,1.7031v3.97h-.9111V30.7778c0-.708-.36-1.14-1.0435-1.14-.7319,0-1.4033.3838-1.4033,1.6553V34.52H123.61v-5.541h.6836Z"/>
    <path d="M132.8638,32.9844l.8037.18c-.2041,1.1274-1.1157,1.5-2.1709,1.5-1.44,0-2.3989-1.02-2.3989-2.8784,0-1.8472.9716-2.9385,2.4707-2.9385a2.0885,2.0885,0,0,1,2.1469,2.3388,2.3219,2.3219,0,0,1-.1079.7676h-3.6343c.06,1.1631.6,1.9907,1.5953,1.9907A1.1939,1.1939,0,0,0,132.8638,32.9844Zm-.0479-1.7632a1.903,1.903,0,0,0,.0117-.252,1.3109,1.3109,0,0,0-1.3193-1.3911c-.8516,0-1.3911.5757-1.5112,1.6431Z"/>
    <path d="M138.4434,32.9844l.8037.18c-.2041,1.1274-1.1158,1.5-2.1709,1.5-1.44,0-2.399-1.02-2.399-2.8784,0-1.8472.9717-2.9385,2.4707-2.9385a2.0886,2.0886,0,0,1,2.147,2.3388,2.3219,2.3219,0,0,1-.1079.7676h-3.6343c.06,1.1631.6,1.9907,1.5952,1.9907A1.1939,1.1939,0,0,0,138.4434,32.9844Zm-.0479-1.7632a1.903,1.903,0,0,0,.0117-.252,1.3109,1.3109,0,0,0-1.3193-1.3911c-.8516,0-1.3911.5757-1.5108,1.6431Z"/>
    <path d="M143.5024,29.89a2.3715,2.3715,0,0,0-.4433-.0361,1.6464,1.6464,0,0,0-1.5713,1.7749V34.52h-.9116v-5.541h.7558l.1079,1.4873a1.932,1.932,0,0,1,2.1109-1.6069Z"/>
    <path d="M144.9746,26.52a.6536.6536,0,1,1,0,1.3071.6538.6538,0,0,1,0-1.3071Zm.4678,2.4585V34.52h-.9116v-5.541Z"/>
    <path d="M147.792,30.0459a1.7337,1.7337,0,0,1,1.7754-1.1992A1.5612,1.5612,0,0,1,151.27,30.55v3.97h-.9111V30.7778c0-.708-.36-1.14-1.0435-1.14-.7319,0-1.4033.3838-1.4033,1.6553V34.52h-.9116v-5.541h.6836Z"/>
    <path d="M156.2637,29.3262c.2754-.12.3716-.4434.4316-.8394l.8154.2881a1.1377,1.1377,0,0,1-.8994.9834,1.9716,1.9716,0,0,1,.2637,1.0552,1.9419,1.9419,0,0,1-2.1948,1.9189,2.3435,2.3435,0,0,1-.7315-.0957.65.65,0,0,0-.42.6113c0,.3482.228.504.648.504H155.46c1.247,0,1.9067.5039,1.9067,1.5112,0,1.415-1.5229,1.7871-2.9263,1.7871-1.1875,0-2.3745-.312-2.3745-1.4756a1.3534,1.3534,0,0,1,1.4151-1.3188.7847.7847,0,0,1-.7315-.8277.8941.8941,0,0,1,.7915-.9238,1.7564,1.7564,0,0,1-1.0556-1.6909,1.942,1.942,0,0,1,2.1708-1.9668A2.4927,2.4927,0,0,1,156.2637,29.3262Zm-1.7515,7.0644c1.1274,0,1.979-.228,1.979-1.0073,0-.4561-.24-.8276-1.0312-.8276h-1.14c-.8994,0-1.3789.3-1.3789.9594C152.9414,36.1626,153.625,36.3906,154.5122,36.3906Zm.144-4.33a1.2655,1.2655,0,1,0-1.2832-1.2592A1.1841,1.1841,0,0,0,154.6562,32.061Z"/>
    <path d="M58.0371,47.72V41.4712H55.9385v-.8154h5.145v.8154H58.9727V47.72Z"/>
    <path d="M64.6621,46.1846l.8037.18c-.2041,1.1274-1.1157,1.4995-2.1709,1.4995-1.4394,0-2.3989-1.02-2.3989-2.8784,0-1.8472.9717-2.9385,2.4707-2.9385a2.0886,2.0886,0,0,1,2.147,2.3388,2.3246,2.3246,0,0,1-.1079.7676H61.7715c.06,1.1631.6,1.9907,1.5952,1.9907A1.1938,1.1938,0,0,0,64.6621,46.1846Zm-.0478-1.7632a1.903,1.903,0,0,0,.0117-.252,1.3109,1.3109,0,0,0-1.3194-1.3911c-.8515,0-1.3911.5757-1.5107,1.6431Z"/>
    <path d="M69.4873,47.72V40.6558h.9356v3.07h3.5737v-3.07h.9355V47.72h-.9355V44.5415H70.4229V47.72Z"/>
    <path d="M80.06,46.1846l.8037.18c-.2041,1.1274-1.1158,1.4995-2.1709,1.4995-1.4395,0-2.399-1.02-2.399-2.8784,0-1.8472.9717-2.9385,2.4707-2.9385a2.0886,2.0886,0,0,1,2.147,2.3388,2.3219,2.3219,0,0,1-.1079.7676H77.1694c.06,1.1631.6,1.9907,1.5952,1.9907A1.1939,1.1939,0,0,0,80.06,46.1846Zm-.0479-1.7632a1.903,1.903,0,0,0,.0117-.252,1.3109,1.3109,0,0,0-1.3193-1.3911c-.8516,0-1.3911.5757-1.5112,1.6431Z"/>
    <path d="M85.1187,43.09a2.3727,2.3727,0,0,0-.4434-.0361,1.6464,1.6464,0,0,0-1.5713,1.7749V47.72h-.9116v-5.541h.7558l.108,1.4873a1.9319,1.9319,0,0,1,2.1108-1.6069Z"/>
    <path d="M89.5405,46.1846l.8037.18c-.2041,1.1274-1.1157,1.4995-2.1709,1.4995-1.4394,0-2.3989-1.02-2.3989-2.8784,0-1.8472.9717-2.9385,2.4707-2.9385a2.0886,2.0886,0,0,1,2.147,2.3388,2.3246,2.3246,0,0,1-.1079.7676H86.65c.06,1.1631.6,1.9907,1.5952,1.9907A1.1938,1.1938,0,0,0,89.5405,46.1846Zm-.0478-1.7632a1.903,1.903,0,0,0,.0117-.252,1.3109,1.3109,0,0,0-1.3193-1.3911c-.8516,0-1.3912.5757-1.5113,1.6431Z"/>
    <path d="M92.4648,43.2461A1.7337,1.7337,0,0,1,94.24,42.0469,1.5612,1.5612,0,0,1,95.9429,43.75v3.97h-.9112V43.978c0-.708-.36-1.14-1.0434-1.14-.732,0-1.4033.3838-1.4033,1.6553V47.72h-.9117v-5.541h.6836Z"/>
    <path d="M100.9365,42.5264c.2754-.12.3716-.4434.4317-.8394l.8154.2881a1.1378,1.1378,0,0,1-.8994.9834,1.9716,1.9716,0,0,1,.2637,1.0552,1.942,1.942,0,0,1-2.1949,1.9189,2.3424,2.3424,0,0,1-.7314-.0957.65.65,0,0,0-.42.6113c0,.3482.228.5039.6479.5039h1.2832c1.2471,0,1.9068.504,1.9068,1.5113,0,1.415-1.523,1.7871-2.9263,1.7871-1.1875,0-2.3745-.312-2.3745-1.4756a1.3533,1.3533,0,0,1,1.415-1.3188.7846.7846,0,0,1-.7314-.8277.8941.8941,0,0,1,.7915-.9238,1.7565,1.7565,0,0,1-1.0557-1.6909,1.9421,1.9421,0,0,1,2.1709-1.9668A2.4924,2.4924,0,0,1,100.9365,42.5264Zm-1.7514,7.0644c1.1274,0,1.979-.228,1.979-1.0073,0-.4561-.24-.8276-1.0313-.8276h-1.14c-.8994,0-1.3789.3-1.3789.9594C97.6143,49.3628,98.2979,49.5908,99.1851,49.5908Zm.144-4.33a1.2655,1.2655,0,1,0-1.2832-1.2592A1.1841,1.1841,0,0,0,99.3291,45.2612Z"/>
    <path d="M106.7505,46.5322c0,.4322.2036.5161.4194.5161a.71.71,0,0,0,.3-.0483v.7319a1.7889,1.7889,0,0,1-.4917.0718.9525.9525,0,0,1-1.0791-.8994,1.6586,1.6586,0,0,1-1.643.9595,1.4882,1.4882,0,0,1-1.667-1.4873c0-1.2232.935-1.9429,3.25-1.835v-.7436c0-.7437-.48-1.0074-1.1153-1.0074a.9725.9725,0,0,0-1.1157.9234l-.8393-.12c.0839-1.1757,1.1274-1.5473,2.0629-1.5473.9712,0,1.919.3838,1.919,1.667Zm-.9116-1.3432c-1.607-.0357-2.3389.312-2.3389,1.08a.8624.8624,0,0,0,.9717.8876c.6357,0,1.3672-.3959,1.3672-1.0795Z"/>
    <path d="M114.0942,45.9565l-1.4389-2.7221a5.716,5.716,0,0,1-.5279-1.2476H112.08a10.797,10.797,0,0,1,.06,1.2954V47.72h-.9355V40.6558h1.1631l1.7871,3.562a3.9966,3.9966,0,0,1,.312.7915h.0479a3.9492,3.9492,0,0,1,.312-.7915l1.7871-3.562h1.0913V47.72h-.9356V43.2822a10.7793,10.7793,0,0,1,.06-1.2954h-.0483a5.6918,5.6918,0,0,1-.5274,1.2476l-1.4394,2.7221Z"/>
    <path d="M123.165,46.5322c0,.4322.2037.5161.4195.5161a.7087.7087,0,0,0,.3-.0483v.7319a1.79,1.79,0,0,1-.4917.0718.9524.9524,0,0,1-1.0791-.8994,1.6587,1.6587,0,0,1-1.6431.9595,1.4886,1.4886,0,0,1-1.6675-1.4873c0-1.2232.9356-1.9429,3.2505-1.835v-.7436c0-.7437-.48-1.0074-1.1152-1.0074a.9724.9724,0,0,0-1.1157.9234l-.8394-.12c.084-1.1757,1.1274-1.5473,2.063-1.5473.9712,0,1.9189.3838,1.9189,1.667Zm-3.43-5.5766v-.732h3.01v.732Zm2.5185,4.2334c-1.6069-.0357-2.3388.312-2.3388,1.08a.8624.8624,0,0,0,.9716.8876c.6358,0,1.3672-.3959,1.3672-1.0795Z"/>
    <path d="M127.6519,47.5518a2.3446,2.3446,0,0,1-1.2232.312,1.3626,1.3626,0,0,1-1.5234-1.4873V42.91h-.8032v-.7315h.8032V41.0034l.9238-.12v1.2954h1.6431V42.91h-1.6553v3.2983c0,.6118.2759.8755.7436.8755a1.4994,1.4994,0,0,0,.9117-.2876Z"/>
    <path d="M132.4692,46.5322c0,.4322.2037.5161.4195.5161a.71.71,0,0,0,.3-.0483v.7319a1.79,1.79,0,0,1-.4917.0718.9524.9524,0,0,1-1.0791-.8994,1.6587,1.6587,0,0,1-1.6431.9595,1.4882,1.4882,0,0,1-1.667-1.4873c0-1.2232.9351-1.9429,3.25-1.835v-.7436c0-.7437-.48-1.0074-1.1152-1.0074a.9724.9724,0,0,0-1.1157.9234l-.8394-.12c.084-1.1757,1.1274-1.5473,2.063-1.5473.9712,0,1.9189.3838,1.9189,1.667Zm-.9116-1.3432c-1.6069-.0357-2.3388.312-2.3388,1.08a.8624.8624,0,0,0,.9716.8876c.6358,0,1.3672-.3959,1.3672-1.0795Z"/>
    <path d="M134.6548,39.72a.6536.6536,0,1,1,0,1.3071.6538.6538,0,0,1,0-1.3071Zm.4678,2.4585V47.72h-.9117v-5.541Z"/>
    <path d="M139.4546,47.72V40.6558h2.0029c1.7271,0,2.4707.8032,2.4707,2.0986a2.1028,2.1028,0,0,1-2.375,2.2666H140.39V47.72Zm.9355-3.4663h1.0791c1.14,0,1.4751-.5874,1.4751-1.4389,0-.8877-.5273-1.3794-1.499-1.3794H140.39Z"/>
    <path d="M148.3281,46.7241a1.5938,1.5938,0,0,1-1.7031,1.14c-1.0073,0-1.6792-.5157-1.6792-1.8472V42.1787h.9116v3.7539c0,.8755.336,1.2593,1.0674,1.2593a1.5085,1.5085,0,0,0,1.3794-1.6431v-3.37h.9116V47.72h-.78Zm-2.7466-5.7685v-.732h3.01v.732Z"/>
    <path d="M155.2246,47.72h-1.1514L152.01,45.1772h-.3238V47.72h-.9116V39.708h.9116v4.75h.252l1.979-2.2788h1.1269l-2.3266,2.5786Z"/>
    <path d="M159.8452,46.5322c0,.4322.2036.5161.4194.5161a.71.71,0,0,0,.3-.0483v.7319a1.79,1.79,0,0,1-.4917.0718.9524.9524,0,0,1-1.0791-.8994,1.6587,1.6587,0,0,1-1.6431.9595,1.4882,1.4882,0,0,1-1.667-1.4873c0-1.2232.9351-1.9429,3.25-1.835v-.7436c0-.7437-.48-1.0074-1.1152-1.0074a.9725.9725,0,0,0-1.1158.9234l-.8393-.12c.084-1.1757,1.1274-1.5473,2.063-1.5473.9712,0,1.9189.3838,1.9189,1.667Zm-.9116-1.3432c-1.6069-.0357-2.3389.312-2.3389,1.08a.8624.8624,0,0,0,.9717.8876c.6357,0,1.3672-.3959,1.3672-1.0795Z"/>
    <path d="M162.499,43.2344a1.6,1.6,0,0,1,1.6553-1.1875,1.5611,1.5611,0,0,1,1.7026,1.7031v3.97h-.9111V43.9658a.99.99,0,0,0-1.0435-1.1274c-.7319,0-1.4033.3838-1.4033,1.6553V47.72h-.9116V39.708h.9116Z"/>
    <path d="M171.1875,46.5322c0,.4322.2036.5161.4194.5161a.7084.7084,0,0,0,.3-.0483v.7319a1.7889,1.7889,0,0,1-.4917.0718.9525.9525,0,0,1-1.0791-.8994,1.6585,1.6585,0,0,1-1.643.9595,1.4886,1.4886,0,0,1-1.6675-1.4873c0-1.2232.9355-1.9429,3.2505-1.835v-.7436c0-.7437-.48-1.0074-1.1153-1.0074a.9725.9725,0,0,0-1.1157.9234l-.8393-.12c.084-1.1757,1.1274-1.5473,2.063-1.5473.9711,0,1.9189.3838,1.9189,1.667Zm-.9116-1.3432c-1.607-.0357-2.3389.312-2.3389,1.08a.8624.8624,0,0,0,.9717.8876c.6357,0,1.3672-.3959,1.3672-1.0795Z"/>
  </g>
</svg>
